<?xml version="1.0" encoding="UTF-8" standalone="no"?>
<svg
   xmlns:dc="http://purl.org/dc/elements/1.1/"
   xmlns:cc="http://web.resource.org/cc/"
   xmlns:rdf="http://www.w3.org/1999/02/22-rdf-syntax-ns#"
   xmlns:svg="http://www.w3.org/2000/svg"
   xmlns="http://www.w3.org/2000/svg"
   xmlns:sodipodi="http://inkscape.sourceforge.net/DTD/sodipodi-0.dtd"
   xmlns:inkscape="http://www.inkscape.org/namespaces/inkscape"
   version="1.1"
   x="0px"
   y="0px"
   width="55px"
   height="55px"
   id="svg2"
   sodipodi:version="0.32"
   inkscape:version="0.43"
   sodipodi:docname="easy-level.svg"
   sodipodi:docbase="C:\src\implode\icons">
  <metadata
     id="metadata9">
    <rdf:RDF>
      <cc:Work
         rdf:about="">
        <dc:format>image/svg+xml</dc:format>
        <dc:type
           rdf:resource="http://purl.org/dc/dcmitype/StillImage" />
      </cc:Work>
    </rdf:RDF>
  </metadata>
  <defs
     id="defs7" />
  <sodipodi:namedview
     inkscape:window-height="540"
     inkscape:window-width="756"
     inkscape:pageshadow="2"
     inkscape:pageopacity="1"
     borderopacity="1.0"
     bordercolor="#666666"
     pagecolor="#7f7f7f"
     id="base"
     inkscape:zoom="6.8"
     inkscape:cx="30.441176"
     inkscape:cy="33.653437"
     inkscape:window-x="88"
     inkscape:window-y="88"
     inkscape:current-layer="svg2" />
  <path
     style="fill:#ffffff;fill-opacity:1;fill-rule:nonzero;stroke:#ffffff;stroke-width:4.00988102;stroke-linecap:round;stroke-linejoin:round;stroke-miterlimit:4;stroke-dashoffset:0;stroke-opacity:1"
     d="M 6.5343528,30.950261 C 10.072483,30.950261 13.610614,30.950261 17.148744,30.950261 C 17.148744,34.357351 17.148744,37.764441 17.148744,41.171531 C 13.610614,41.171531 10.072483,41.171531 6.5343528,41.171531 C 6.5343528,37.764441 6.5343528,34.357351 6.5343528,30.950261 z "
     id="rect1310" />
  <path
     style="fill:#ffffff;fill-opacity:1;fill-rule:nonzero;stroke:#ffffff;stroke-width:4.00988102;stroke-linecap:round;stroke-linejoin:round;stroke-miterlimit:4;stroke-dashoffset:0;stroke-opacity:1"
     d="M 22.505079,30.950261 C 26.043211,30.950261 29.581341,30.950261 33.119473,30.950261 C 33.119473,34.357351 33.119473,37.764441 33.119473,41.171531 C 29.581341,41.171531 26.043211,41.171531 22.505079,41.171531 C 22.505079,37.764441 22.505079,34.357351 22.505079,30.950261 z "
     id="path2359" />
  <path
     style="fill:#ffffff;fill-opacity:1;fill-rule:nonzero;stroke:#ffffff;stroke-width:4.00988102;stroke-linecap:round;stroke-linejoin:round;stroke-miterlimit:4;stroke-dashoffset:0;stroke-opacity:1"
     d="M 38.475807,30.950261 C 42.013937,30.950261 45.552069,30.950261 49.090201,30.950261 C 49.090201,34.357351 49.090201,37.764441 49.090201,41.171531 C 45.552069,41.171531 42.013937,41.171531 38.475807,41.171531 C 38.475807,37.764441 38.475807,34.357351 38.475807,30.950261 z "
     id="path2357" />
  <path
     style="fill:#ffffff;fill-opacity:1;fill-rule:nonzero;stroke:#ffffff;stroke-width:4.00988102;stroke-linecap:round;stroke-linejoin:round;stroke-miterlimit:4;stroke-dashoffset:0;stroke-opacity:1"
     d="M 38.475807,15.290761 C 42.013937,15.290761 45.552069,15.290761 49.090201,15.290761 C 49.090201,18.697849 49.090201,22.104937 49.090201,25.512025 C 45.552069,25.512025 42.013937,25.512025 38.475807,25.512025 C 38.475807,22.104937 38.475807,18.697849 38.475807,15.290761 z "
     id="path2353" />
  <path
     style="fill:#ffffff;fill-opacity:1;fill-rule:nonzero;stroke:#ffffff;stroke-width:4.00988102;stroke-linecap:round;stroke-linejoin:round;stroke-miterlimit:4;stroke-dashoffset:0;stroke-opacity:1"
     d="M 22.505079,15.290761 C 26.043211,15.290761 29.581341,15.290761 33.119473,15.290761 C 33.119473,18.697849 33.119473,22.104937 33.119473,25.512025 C 29.581341,25.512025 26.043211,25.512025 22.505079,25.512025 C 22.505079,22.104937 22.505079,18.697849 22.505079,15.290761 z "
     id="path2345" />
  <path
     style="fill:#ffffff;fill-opacity:1;fill-rule:nonzero;stroke:#ffffff;stroke-width:4.00988102;stroke-linecap:round;stroke-linejoin:round;stroke-miterlimit:4;stroke-dashoffset:0;stroke-opacity:1"
     d="M 6.5343528,15.290761 C 10.072483,15.290761 13.610614,15.290761 17.148744,15.290761 C 17.148744,18.697849 17.148744,22.104937 17.148744,25.512025 C 13.610614,25.512025 10.072483,25.512025 6.5343528,25.512025 C 6.5343528,22.104937 6.5343528,18.697849 6.5343528,15.290761 z "
     id="path2341" />
</svg>
